<svg id="eATDIlpuj0s1" xmlns="http://www.w3.org/2000/svg" xmlns:xlink="http://www.w3.org/1999/xlink" viewBox="0 0 16 16" shape-rendering="geometricPrecision" text-rendering="geometricPrecision"><g transform="matrix(1.8 0 0 1.8-6.41875-6.857821)"><path d="M-51.16948,-0.015039l99.983401.009583" transform="matrix(.040595 0.023438-.023438 0.040595 10.268275 8.49677)" fill="none" stroke="#3f5787" stroke-width="4"/><path d="M-51.200051,0.016043h100.000069" transform="matrix(0-.046875 0.046875 0 12.249248 7.240624)" fill="none" stroke="#3f5787" stroke-width="4"/><path d="M-51.188264,0.026042l99.983436-.009644" transform="matrix(-.040595 0.023438-.023438-.040595 10.219502 6.181249)" fill="none" stroke="#3f5787" stroke-width="4"/><path d="M-51.213887,-0.005471l99.983401-.009584" transform="matrix(.040595-.023438 0.023438 0.040595 10.188527 11.018647)" fill="none" stroke="#3f5787" stroke-width="4"/><path d="M-51.169535,-0.017615l99.983436.009644" transform="matrix(-.040595-.023438 0.023438-.040595 10.091158 8.675001)" fill="none" stroke="#3f5787" stroke-width="4"/><path d="M-51.183383,-0.028081h100.00007" transform="matrix(0 0.046875-.046875 0 8.15884 9.903126)" fill="none" stroke="#3f5787" stroke-width="4"/><path d="M-51.169496,-0.015066l99.983401.009583" transform="matrix(.040595 0.023438-.023438 0.040595 5.9089 11.074897)" fill="none" stroke="#3f5787" stroke-width="4"/><path d="M-51.20002,0.016043h100.000069" transform="matrix(0-.046875 0.046875 0 7.889873 9.818751)" fill="none" stroke="#3f5787" stroke-width="4"/><path d="M-51.18828,0.026069l99.983436-.009644" transform="matrix(-.040595 0.023438-.023438-.040595 5.860127 8.759376)" fill="none" stroke="#3f5787" stroke-width="4"/><path d="M-51.213909,-0.005448l99.983401-.009583" transform="matrix(.040595-.023438 0.023438 0.040595 5.829152 8.44052)" fill="none" stroke="#3f5787" stroke-width="4"/><path d="M-51.169545,-0.017645l99.983436.009644" transform="matrix(-.040595-.023438 0.023438-.040595 5.731784 6.096874)" fill="none" stroke="#3f5787" stroke-width="4"/><path d="M-51.183352,-0.028074h100.00007" transform="matrix(0 0.046875-.046875 0 3.799465 7.324999)" fill="none" stroke="#3f5787" stroke-width="4"/></g></svg>